Coordinates
version=1
nRows=12
nColumns=34
inDegrees=yes

Units are S.I. units (second, meters, Newtons, ...)
Angles are in degrees.

endheader
time	pelvis_tilt	pelvis_list	pelvis_rotation	pelvis_tx	pelvis_ty	pelvis_tz	hip_flexion_r	hip_adduction_r	hip_rotation_r	knee_angle_r	ankle_angle_r	subtalar_angle_r	mtp_angle_r	hip_flexion_l	hip_adduction_l	hip_rotation_l	knee_angle_l	socket_flexion	socket_adduction	socket_rotation	socket_tx	socket_ty	socket_tz	pros_ankle_rx	pros_ankle_ry	pros_ankle_rz	pros_ankle_tx	pros_ankle_ty	pros_ankle_tz	foot_flex	lumbar_extension	lumbar_bending	lumbar_rotation
      0.00000000	     -2.13426081	     -8.85501792	     -3.64723844	     -0.77352808	      1.03292232	      0.39796552	    -17.69015411	      9.68617664	     -4.37094942	     -3.96780939	      5.38618594	     21.67221557	     31.81374780	     22.29434014	    -10.64855418	     -1.41475341	      6.49906177	      5.51219550	      0.00000000	      0.00000000	      0.00000000	      0.00000000	      0.00000000	      0.00000000	      0.00000000	      0.00000000	      0.00000000	      0.00000000	      0.00000000	      0.33186930	     -7.50687091	      3.97199037	     -9.85696203
      0.00416667	     -2.16255642	     -8.80209494	     -3.73096976	     -0.76848626	      1.03216645	      0.39782770	    -17.84612570	      9.56676300	     -4.29703758	     -4.15775105	      5.38249103	     21.67518925	     31.82907069	     22.27894690	    -10.60241975	     -1.33504337	      6.34973718	      5.68494322	      0.00000000	      0.00000000	      0.00000000	      0.00000000	      0.00000000	      0.00000000	      0.00000000	      0.00000000	      0.00000000	      0.00000000	      0.00000000	     -0.14529790	     -7.46368694	      3.86187194	     -9.83719839
      0.00833333	     -2.18256600	     -8.70389364	     -3.85688968	     -0.76320853	      1.03145022	      0.39778800	    -17.98704249	      9.38289334	     -4.23070376	     -4.41032457	      5.41449123	     21.66043136	     31.86574563	     22.23435345	    -10.52607998	     -1.35417224	      6.19086733	      5.85400996	      0.00000000	      0.00000000	      0.00000000	      0.00000000	      0.00000000	      0.00000000	      0.00000000	      0.00000000	      0.00000000	      0.00000000	      0.00000000	     -0.65882372	     -7.43953672	      3.64461576	     -9.78375753
      0.01250000	     -2.18948520	     -8.56527781	     -4.02085347	     -0.75773754	      1.03077818	      0.39782114	    -18.11979935	      9.13986063	     -4.16375225	     -4.71516427	      5.47433364	     21.64752637	     31.93427914	     22.15056659	    -10.42218498	     -1.44644985	      6.04428092	      6.03782270	      0.00000000	      0.00000000	      0.00000000	      0.00000000	      0.00000000	      0.00000000	      0.00000000	      0.00000000	      0.00000000	      0.00000000	      0.00000000	     -1.16935079	     -7.43599719	      3.34568692	     -9.68250152
      0.01666667	     -1.98090766	     -8.30647929	     -4.33227595	     -0.75192728	      1.03051932	      0.39811655	    -18.42627740	      8.67463391	     -4.14183709	     -5.16213550	      5.62595403	     22.02538583	     32.59831092	     21.56858947	    -10.24224086	     -1.81299427	      6.40660161	      6.52560273	      0.00000000	      0.00000000	      0.00000000	      0.00000000	      0.00000000	      0.00000000	      0.00000000	      0.00000000	      0.00000000	      0.00000000	      0.00000000	     -1.62028519	     -7.67665673	      2.88315080	     -9.17651715
      0.02083333	     -2.00574339	     -8.21404470	     -4.41321017	     -0.74625691	      1.02979101	      0.39794658	    -18.56787076	      8.50580806	     -4.05539933	     -5.41527451	      5.58939001	     22.00893833	     32.63973420	     21.53844663	    -10.15811457	     -1.73703013	      6.23517420	      6.75300799	      0.00000000	      0.00000000	      0.00000000	      0.00000000	      0.00000000	      0.00000000	      0.00000000	      0.00000000	      0.00000000	      0.00000000	      0.00000000	     -2.09848738	     -7.63620424	      2.71829251	     -9.17787980
      0.02500000	     -2.02574014	     -8.10542801	     -4.47198375	     -0.74050748	      1.02908351	      0.39775751	    -18.70722706	      8.33019206	     -3.96151193	     -5.69257989	      5.55205798	     21.98765550	     32.67815907	     21.51364869	    -10.04308212	     -1.71263384	      6.05901918	      7.01941766	      0.00000000	      0.00000000	      0.00000000	      0.00000000	      0.00000000	      0.00000000	      0.00000000	      0.00000000	      0.00000000	      0.00000000	      0.00000000	     -2.48789226	     -7.60246779	      2.54102020	     -9.16241881
      0.02916667	     -1.98836611	     -7.74876832	     -4.79332498	     -0.73440825	      1.02866973	      0.39815090	    -18.77986263	      7.78579558	     -3.95284721	     -6.20563457	      5.61082502	     21.87749567	     32.93527685	     21.22392782	     -9.76925331	     -2.12808701	      6.07624706	      7.30911870	      0.00000000	      0.00000000	      0.00000000	      0.00000000	      0.00000000	      0.00000000	      0.00000000	      0.00000000	      0.00000000	      0.00000000	      0.00000000	     -2.94364779	     -7.63672406	      1.81767483	     -9.00065420
      0.03333333	     -1.99501744	     -7.66263893	     -4.83613551	     -0.72855021	      1.02809017	      0.39790741	    -18.92764314	      7.63562188	     -3.83147954	     -6.47833184	      5.55856472	     21.89141311	     32.98839864	     21.16768991	     -9.67786778	     -2.05803529	      5.92559567	      7.62132530	      0.00000000	      0.00000000	      0.00000000	      0.00000000	      0.00000000	      0.00000000	      0.00000000	      0.00000000	      0.00000000	      0.00000000	      0.00000000	     -3.27176437	     -7.61544413	      1.70124905	     -8.96414355
      0.03750000	     -1.54082580	     -7.24341994	     -5.28437384	     -0.72207074	      1.02839228	      0.39859220	    -19.43736528	      6.90959538	     -3.88381236	     -6.98998880	      5.50579300	     22.31743408	     34.51755577	     19.91082822	     -9.35846586	     -2.74249491	      7.16953941	      8.66376858	      0.00000000	      0.00000000	      0.00000000	      0.00000000	      0.00000000	      0.00000000	      0.00000000	      0.00000000	      0.00000000	      0.00000000	      0.00000000	     -3.70500743	     -8.12440882	      0.89957130	     -8.33376458
      0.04166667	     -1.51689768	     -7.00414730	     -5.40132926	     -0.71606129	      1.02799100	      0.39857462	    -19.52238425	      6.56456115	     -3.85741517	     -7.40763335	      5.38163167	     22.18278611	     34.78328230	     19.76586344	     -9.13001955	     -2.87680555	      7.04720391	      8.97192106	      0.00000000	      0.00000000	      0.00000000	      0.00000000	      0.00000000	      0.00000000	      0.00000000	      0.00000000	      0.00000000	      0.00000000	      0.00000000	     -3.96770186	     -8.12948661	      0.45058650	     -8.37436403
      0.04583333	     -1.23220621	     -6.70274684	     -5.62314664	     -0.70979439	      1.02803707	      0.39881389	    -19.89649162	      6.07805034	     -3.82577065	     -7.78717267	      5.16710201	     22.28630921	     36.36675741	     18.99912002	     -8.85142821	     -3.20328343	      7.69380842	      9.73165319	      0.00000000	      0.00000000	      0.00000000	      0.00000000	      0.00000000	      0.00000000	      0.00000000	      0.00000000	      0.00000000	      0.00000000	      0.00000000	     -4.22180666	     -8.45527986	     -0.11232581	     -8.11672215
